<mxfile host="app.diagrams.net" modified="2023-11-14T12:00:56.037Z" agent="Mozilla/5.0 (Macintosh; Intel Mac OS X 10_15_7) AppleWebKit/537.36 (KHTML, like Gecko) Chrome/118.0.0.0 Safari/537.36" etag="hF35XcxVEGzn28An1YIs" version="22.1.0" type="device">
  <diagram name="Page-1" id="TwlBkUQx2KDMwPlD4amS">
    <mxGraphModel dx="2920" dy="2480" grid="1" gridSize="10" guides="1" tooltips="1" connect="1" arrows="1" fold="1" page="1" pageScale="1" pageWidth="850" pageHeight="1100" math="0" shadow="0">
      <root>
        <mxCell id="0" />
        <mxCell id="1" parent="0" />
        <mxCell id="RHsuxo9v3teLjSzJTNt1-8" value="&lt;p style=&quot;margin:0px;margin-top:4px;text-align:center;&quot;&gt;&lt;b&gt;Property&lt;/b&gt;&lt;/p&gt;&lt;hr size=&quot;1&quot;/&gt;&lt;p style=&quot;margin:0 0 0 4px;line-height:1.6;&quot;&gt;+ Property(int, String, int, int, String, double, String): &lt;br/&gt;+ Property(int, String, int, int, double, String): &lt;/p&gt;&lt;hr size=&quot;1&quot;/&gt;&lt;p style=&quot;margin:0 0 0 4px;line-height:1.6;&quot;&gt;- area: double&lt;br/&gt;- lotNumber: int&lt;br/&gt;- name: String&lt;br/&gt;- municipalityName: String&lt;br/&gt;- municipalityNumber: int&lt;br/&gt;- sectionNumber: int&lt;br/&gt;- nameOfOwner: String&lt;/p&gt;&lt;hr size=&quot;1&quot;/&gt;&lt;p style=&quot;margin:0 0 0 4px;line-height:1.6;&quot;&gt;+ getName(): String&lt;br/&gt;+ key(): String&lt;br/&gt;+ getArea(): double&lt;br/&gt;+ getSectionNumber(): int&lt;br/&gt;+ getMunicipalityNumber(): int&lt;br/&gt;+ getMunicipalityName(): String&lt;br/&gt;+ getLotNumber(): int&lt;br/&gt;+ setNameOfOwner(String): void&lt;br/&gt;+ toString(): String&lt;br/&gt;+ getNameOfOwner(): String&lt;/p&gt;" style="verticalAlign=top;align=left;overflow=fill;fontSize=14;fontFamily=Helvetica;html=1;rounded=0;shadow=0;comic=0;labelBackgroundColor=none;strokeWidth=1;" vertex="1" parent="1">
          <mxGeometry x="-810" y="-350" width="442" height="618" as="geometry" />
        </mxCell>
        <mxCell id="RHsuxo9v3teLjSzJTNt1-9" value="&lt;p style=&quot;margin:0px;margin-top:4px;text-align:center;&quot;&gt;&lt;b&gt;PropertyRegister&lt;/b&gt;&lt;/p&gt;&lt;hr size=&quot;1&quot;/&gt;&lt;p style=&quot;margin:0 0 0 4px;line-height:1.6;&quot;&gt;+ PropertyRegister(): &lt;/p&gt;&lt;hr size=&quot;1&quot;/&gt;&lt;p style=&quot;margin:0 0 0 4px;line-height:1.6;&quot;&gt;- properties: HashMap&amp;lt;String, Property&amp;gt;&lt;/p&gt;&lt;hr size=&quot;1&quot;/&gt;&lt;p style=&quot;margin:0 0 0 4px;line-height:1.6;&quot;&gt;+ registerProperty(int, String, int, int, String, double, String): void&lt;br/&gt;+ getAverageArea(): double&lt;br/&gt;+ deleteProperty(Property): void&lt;br/&gt;+ getProperties(): Property[]&lt;br/&gt;+ getPropertiesWithLotNumber(int): Property[]&lt;br/&gt;+ getNumberOfProperties(): int&lt;br/&gt;+ findProperty(int, int, int): Property&lt;br/&gt;+ registerProperty(int, String, int, int, double, String): void&lt;br/&gt;+ printProperties(): void&lt;/p&gt;" style="verticalAlign=top;align=left;overflow=fill;fontSize=14;fontFamily=Helvetica;html=1;rounded=0;shadow=0;comic=0;labelBackgroundColor=none;strokeWidth=1;" vertex="1" parent="1">
          <mxGeometry x="-310" y="-350" width="509" height="378" as="geometry" />
        </mxCell>
        <mxCell id="RHsuxo9v3teLjSzJTNt1-10" value="&lt;p style=&quot;margin:0px;margin-top:4px;text-align:center;&quot;&gt;&lt;b&gt;PropertyRegisterClient&lt;/b&gt;&lt;/p&gt;&lt;hr size=&quot;1&quot;/&gt;&lt;p style=&quot;margin:0 0 0 4px;line-height:1.6;&quot;&gt;+ PropertyRegisterClient(): &lt;/p&gt;&lt;hr size=&quot;1&quot;/&gt;&lt;p style=&quot;margin:0 0 0 4px;line-height:1.6;&quot;&gt;~ scanner: Scanner&lt;br/&gt;~ register: PropertyRegister&lt;/p&gt;&lt;hr size=&quot;1&quot;/&gt;&lt;p style=&quot;margin:0 0 0 4px;line-height:1.6;&quot;&gt;+ testData(): void&lt;br/&gt;+ menu(): void&lt;br/&gt;+ main(String[]): void&lt;/p&gt;" style="verticalAlign=top;align=left;overflow=fill;fontSize=14;fontFamily=Helvetica;html=1;rounded=0;shadow=0;comic=0;labelBackgroundColor=none;strokeWidth=1;" vertex="1" parent="1">
          <mxGeometry x="280" y="-350" width="280" height="228" as="geometry" />
        </mxCell>
      </root>
    </mxGraphModel>
  </diagram>
</mxfile>
